<?xml version="1.0" encoding="UTF-8" standalone="no"?>
<!DOCTYPE svg PUBLIC "-//W3C//DTD SVG 1.1//EN" "http://www.w3.org/Graphics/SVG/1.1/DTD/svg11.dtd">
<svg width="100%" height="100%" viewBox="0 0 512 513" version="1.1" xmlns="http://www.w3.org/2000/svg" xmlns:xlink="http://www.w3.org/1999/xlink" xml:space="preserve" xmlns:serif="http://www.serif.com/" style="fill-rule:evenodd;clip-rule:evenodd;stroke-linejoin:round;stroke-miterlimit:2;">
    <g transform="matrix(1,0,0,1,0,-1255)">
        <g id="IconoInverter" transform="matrix(1,0,0,1,0,1255.830363)">
            <rect x="0" y="0" width="512" height="512" style="fill:rgb(28,25,23);"/>
            <g transform="matrix(0.93734,0,0,0.93734,16.040832,16.040832)">
                <g transform="matrix(2.617877,-1.511432,1.01981,1.766363,-244.828551,53.542947)">
                    <path d="M54.105,278.505C50.201,278.505 46.457,276.207 43.696,272.115C40.936,268.024 39.385,262.474 39.385,256.688L39.385,206.304C39.385,188.447 44.171,171.32 52.691,158.693C61.211,146.065 72.767,138.971 84.816,138.971L165.886,138.971C169.79,138.971 173.534,141.27 176.295,145.362C179.056,149.453 180.607,155.002 180.607,160.789L180.607,211.172C180.607,229.03 175.82,246.157 167.3,258.784C158.78,271.412 147.224,278.505 135.175,278.505L54.105,278.505ZM133.533,159.4L86.458,159.4C68.073,159.4 53.168,181.489 53.168,208.738L53.168,208.739C53.168,235.988 68.073,258.077 86.458,258.077L133.533,258.077C151.917,258.077 166.82,235.992 166.823,208.747L166.823,208.739L166.823,208.738C166.823,181.489 151.918,159.4 133.533,159.4Z" style="fill:rgb(249,115,22);"/>
                </g>
                <g transform="matrix(1.005336,-0.580431,0.580431,1.005336,-68.755078,93.558549)">
                    <circle cx="227.982" cy="261.061" r="44.835" style="fill:rgb(249,115,22);"/>
                </g>
                <g transform="matrix(-1.005336,0.580431,-0.580431,-1.005336,580.755078,418.441451)">
                    <circle cx="227.982" cy="261.061" r="44.835" style="fill:rgb(249,115,22);"/>
                </g>
            </g>
        </g>
    </g>
</svg>
